<svg width="25" height="24" viewBox="0 0 25 24" fill="none" xmlns="http://www.w3.org/2000/svg">
<g id="settings/category">
<path id="Vector" d="M5.625 10H7.625C9.625 10 10.625 9 10.625 7V5C10.625 3 9.625 2 7.625 2H5.625C3.625 2 2.625 3 2.625 5V7C2.625 9 3.625 10 5.625 10Z" stroke="#B4B9C9" stroke-width="1.5" stroke-miterlimit="10" stroke-linecap="round" stroke-linejoin="round"/>
<path id="Vector_2" d="M17.625 10H19.625C21.625 10 22.625 9 22.625 7V5C22.625 3 21.625 2 19.625 2H17.625C15.625 2 14.625 3 14.625 5V7C14.625 9 15.625 10 17.625 10Z" stroke="#B4B9C9" stroke-width="1.5" stroke-miterlimit="10" stroke-linecap="round" stroke-linejoin="round"/>
<path id="Vector_3" d="M17.625 22H19.625C21.625 22 22.625 21 22.625 19V17C22.625 15 21.625 14 19.625 14H17.625C15.625 14 14.625 15 14.625 17V19C14.625 21 15.625 22 17.625 22Z" stroke="#B4B9C9" stroke-width="1.5" stroke-miterlimit="10" stroke-linecap="round" stroke-linejoin="round"/>
<path id="Vector_4" d="M5.625 22H7.625C9.625 22 10.625 21 10.625 19V17C10.625 15 9.625 14 7.625 14H5.625C3.625 14 2.625 15 2.625 17V19C2.625 21 3.625 22 5.625 22Z" stroke="#B4B9C9" stroke-width="1.5" stroke-miterlimit="10" stroke-linecap="round" stroke-linejoin="round"/>
</g>
</svg>
