<svg width="25" height="24" viewBox="0 0 25 24" fill="none" xmlns="http://www.w3.org/2000/svg">
<g id="support/star-1">
<path id="Vector" d="M14.1059 3.51063L15.8659 7.03063C16.1059 7.52063 16.7459 7.99063 17.2859 8.08063L20.4759 8.61061C22.5159 8.95061 22.9959 10.4306 21.5259 11.8906L19.0459 14.3706C18.6259 14.7906 18.3959 15.6006 18.5259 16.1806L19.2359 19.2506C19.7959 21.6806 18.5059 22.6206 16.3559 21.3506L13.3659 19.5806C12.8259 19.2606 11.9359 19.2606 11.3859 19.5806L8.39589 21.3506C6.25589 22.6206 4.95589 21.6706 5.51589 19.2506L6.22589 16.1806C6.35589 15.6006 6.12589 14.7906 5.70589 14.3706L3.22589 11.8906C1.76589 10.4306 2.23589 8.95061 4.27589 8.61061L7.46589 8.08063C7.99589 7.99063 8.63589 7.52063 8.87589 7.03063L10.6359 3.51063C11.5959 1.60063 13.1559 1.60063 14.1059 3.51063Z" stroke="#B4B9C9" stroke-width="1.5" stroke-linecap="round" stroke-linejoin="round"/>
</g>
</svg>
