<svg width="25" height="24" viewBox="0 0 25 24" fill="none" xmlns="http://www.w3.org/2000/svg">
<g id="essetional/home">
<path id="Vector" d="M12.875 18.75C12.465 18.75 12.125 18.41 12.125 18V15C12.125 14.59 12.465 14.25 12.875 14.25C13.285 14.25 13.625 14.59 13.625 15V18C13.625 18.41 13.285 18.75 12.875 18.75Z" fill="#B4B9C9"/>
<path id="Vector_2" d="M18.4759 22.5608H7.27594C5.45594 22.5608 3.79594 21.1608 3.49594 19.3708L2.16594 11.4008C1.94594 10.1608 2.55594 8.5708 3.54594 7.7808L10.4759 2.2308C11.8159 1.1508 13.9259 1.1608 15.2759 2.2408L22.2059 7.7808C23.1859 8.5708 23.7859 10.1608 23.5859 11.4008L22.2559 19.3608C21.9559 21.1308 20.2559 22.5608 18.4759 22.5608ZM12.8659 2.9308C12.3359 2.9308 11.8059 3.0908 11.4159 3.4008L4.48594 8.9608C3.92594 9.4108 3.52594 10.4508 3.64594 11.1608L4.97594 19.1208C5.15594 20.1708 6.20594 21.0608 7.27594 21.0608H18.4759C19.5459 21.0608 20.5959 20.1708 20.7759 19.1108L22.1059 11.1508C22.2159 10.4508 21.8159 9.3908 21.2659 8.9508L14.3359 3.4108C13.9359 3.0908 13.3959 2.9308 12.8659 2.9308Z" fill="#B4B9C9"/>
</g>
</svg>
