<svg width="287" height="287" viewBox="0 0 287 287" fill="none" xmlns="http://www.w3.org/2000/svg">
<path d="M104.731 173.946V179.232H97.1496V202.024H91.6248V179.232H84.0911V173.946H104.731Z" fill="#EF5140"/>
<mask id="mask0_1_121" style="mask-type:luminance" maskUnits="userSpaceOnUse" x="0" y="0" width="287" height="287">
<path d="M287 0H0V287H287V0Z" fill="white"/>
</mask>
<g mask="url(#mask0_1_121)">
<path d="M110.136 179.566C109.275 179.566 108.534 179.255 107.912 178.634C107.29 178.012 106.979 177.27 106.979 176.409C106.979 175.548 107.29 174.807 107.912 174.161C108.534 173.515 109.275 173.204 110.136 173.204C111.021 173.204 111.763 173.515 112.408 174.161C113.03 174.807 113.341 175.548 113.341 176.409C113.341 177.27 113.03 178.012 112.408 178.634C111.787 179.255 111.021 179.566 110.136 179.566ZM107.577 181.958H112.743V202H107.577V181.958Z" fill="#EF5140"/>
</g>
<mask id="mask1_1_121" style="mask-type:luminance" maskUnits="userSpaceOnUse" x="0" y="0" width="287" height="287">
<path d="M287 0H0V287H287V0Z" fill="white"/>
</mask>
<g mask="url(#mask1_1_121)">
<path d="M128.265 173.396C128.289 173.396 128.289 173.396 128.313 173.396C132.068 173.42 135.081 176.481 135.081 180.236V202.024H129.915V177.964C129.533 177.94 128.983 177.916 128.265 177.916C125.443 177.916 124.008 179.208 124.008 181.767V181.958H127.332V186.933H124.008V202H118.842V186.933H115.948V181.958H118.842V181.767C118.842 176.17 121.975 173.396 128.265 173.396Z" fill="#EF5140"/>
</g>
<mask id="mask2_1_121" style="mask-type:luminance" maskUnits="userSpaceOnUse" x="0" y="0" width="287" height="287">
<path d="M287 0H0V287H287V0Z" fill="white"/>
</mask>
<g mask="url(#mask2_1_121)">
<path d="M156.893 199.513C154.837 201.546 152.325 202.574 149.36 202.574C146.394 202.574 143.883 201.546 141.85 199.513C139.793 197.456 138.788 194.969 138.788 192.003C138.788 189.037 139.817 186.526 141.85 184.493C143.883 182.46 146.394 181.432 149.36 181.432C152.325 181.432 154.837 182.46 156.893 184.493C158.95 186.55 159.979 189.037 159.979 192.003C159.979 194.969 158.95 197.456 156.893 199.513ZM145.485 195.949C146.514 197.002 147.805 197.504 149.36 197.504C150.914 197.504 152.206 196.978 153.258 195.949C154.31 194.897 154.813 193.582 154.813 191.979C154.813 190.377 154.286 189.061 153.258 188.009C152.206 186.957 150.914 186.454 149.36 186.454C147.805 186.454 146.514 186.98 145.485 188.009C144.457 189.061 143.931 190.377 143.931 191.979C143.954 193.605 144.457 194.921 145.485 195.949Z" fill="#EF5140"/>
</g>
<mask id="mask3_1_121" style="mask-type:luminance" maskUnits="userSpaceOnUse" x="0" y="0" width="287" height="287">
<path d="M287 0H0V287H287V0Z" fill="white"/>
</mask>
<g mask="url(#mask3_1_121)">
<path d="M180.069 187.339H175.548V195.686C175.548 196.38 175.716 196.882 176.075 197.217C176.433 197.528 176.936 197.719 177.605 197.767C178.275 197.815 179.112 197.791 180.093 197.743V202.431C176.529 202.837 174.042 202.502 172.583 201.426C171.124 200.35 170.406 198.437 170.406 195.686V187.339H166.914V182.365H170.406V178.323L175.572 176.768V182.388H180.093V187.339H180.069Z" fill="#EF5140"/>
</g>
<mask id="mask4_1_121" style="mask-type:luminance" maskUnits="userSpaceOnUse" x="0" y="0" width="287" height="287">
<path d="M287 0H0V287H287V0Z" fill="white"/>
</mask>
<g mask="url(#mask4_1_121)">
<path d="M197.217 182.365H202.909L195.303 202.407H189.396L181.791 182.365H187.483L192.338 196.404L197.217 182.365Z" fill="#EF5140"/>
</g>
<mask id="mask5_1_121" style="mask-type:luminance" maskUnits="userSpaceOnUse" x="0" y="0" width="287" height="287">
<path d="M287 0H0V287H287V0Z" fill="white"/>
</mask>
<g mask="url(#mask5_1_121)">
<path d="M143.5 84.4258C115.087 84.4258 90.3333 99.8043 77.4422 122.549C76.3659 124.438 76.3659 126.782 77.4422 128.696C87.2719 146.011 103.966 159.07 123.936 164.308V158.185C119.105 156.272 114.561 153.665 110.447 150.364C107.912 148.355 107.673 144.6 109.969 142.304L110.806 141.467C112.743 139.53 115.828 139.362 117.981 141.061C132.905 152.875 154.167 152.875 169.091 141.061C171.243 139.362 174.329 139.53 176.266 141.467L177.103 142.304C179.399 144.6 179.16 148.355 176.625 150.364C172.511 153.641 167.967 156.272 163.136 158.185V164.308C183.106 159.07 199.8 146.011 209.63 128.696C210.706 126.806 210.706 124.462 209.63 122.549C196.667 99.8043 171.913 84.4258 143.5 84.4258ZM145.294 142.83C134.34 143.931 125.204 134.794 126.304 123.841C127.117 115.757 133.67 109.204 141.754 108.414C152.684 107.338 161.772 116.45 160.72 127.38C159.907 135.464 153.378 142.017 145.294 142.83Z" fill="#4BB8BA"/>
</g>
</svg>
